<svg xmlns="http://www.w3.org/2000/svg" xmlns:xlink="http://www.w3.org/1999/xlink" width="127" height="127" viewBox="0 0 127 127">
  <defs>
    <radialGradient id="radial-gradient" cx="0.5" cy="0.5" r="0.5" gradientUnits="objectBoundingBox">
      <stop offset="0" stop-color="#89e4ef"/>
      <stop offset="0.733" stop-color="#89e4ef"/>
      <stop offset="1" stop-color="#89e4ef" stop-opacity="0"/>
    </radialGradient>
    <clipPath id="clip-path">
      <rect id="Rectangle_467920" data-name="Rectangle 467920" width="73.637" height="72.588" fill="#12263f"/>
    </clipPath>
  </defs>
  <g id="img18" transform="translate(-705.629 -410)">
    <g id="Group_1180287" data-name="Group 1180287" transform="translate(705.629 410)">
      <circle id="Ellipse_13692" data-name="Ellipse 13692" cx="63.5" cy="63.5" r="63.5" fill="url(#radial-gradient)"/>
      <g id="Group_1214059" data-name="Group 1214059" transform="translate(27.348 26.206)">
        <g id="Group_1214058" data-name="Group 1214058" clip-path="url(#clip-path)">
          <path id="Path_1289533" data-name="Path 1289533" d="M18.6,34.867a10.306,10.306,0,0,1,8.458,8.277l1.577.04a2.811,2.811,0,0,1,2.034.836,5.454,5.454,0,0,1,.661,2.111,2.246,2.246,0,0,1,1.809.547c.286.382.168,1.531-.419,1.608l-1.459.192a2.735,2.735,0,0,1-2.887,2.878l-1.441.032a9.391,9.391,0,0,1-2.812,4.643l.012,2.65,7.486,2.958A5.767,5.767,0,0,1,35.135,67l.013,4.4a1.17,1.17,0,0,1-1.179,1.184l-32.7,0C.6,72.588-.009,72.242,0,71.559l.065-5.315c.028-2.315,1.964-4.058,3.993-4.845L11,58.707,10.965,56.3a9.244,9.244,0,0,1-3.626-4.945L5.8,51.361a2.616,2.616,0,0,1-2.65-2.917,3.722,3.722,0,0,1-1.657-.249,1.5,1.5,0,0,1-.157-1.6c.232-.348,1.123-.466,1.728-.46a4.914,4.914,0,0,1,.805-2.2c1.152-1.179,2.374-.456,3.321-.941a10.024,10.024,0,0,1,9.025-8.152,8.878,8.878,0,0,0,.063-1.535c-.141-2.43,1.626-5,4.281-5.006l15.016-.049.007-3.413-13.276,0a2.624,2.624,0,0,1-2.291-1.341l-1.342-3.274a2.508,2.508,0,0,1,.583-2.607,3.512,3.512,0,0,1,2.9-.752l.015-14.088A2.787,2.787,0,0,1,24.968,0L48.738.007a2.835,2.835,0,0,1,2.713,2.94l.009,13.939a3.412,3.412,0,0,1,2.661.637,2.449,2.449,0,0,1,.79,2.341L53.473,23.5a2.569,2.569,0,0,1-2.3,1.341l-13.269,0,.007,3.414,16.107.01a4.542,4.542,0,0,1,4.531,4.423l.052,2.165A7.449,7.449,0,0,1,62.912,37.1a4.321,4.321,0,0,1,3.859,2.651c1.434,3.433.085,6.37.07,9.9A9.325,9.325,0,0,1,64.1,56.316l-.01,3.432a45.6,45.6,0,0,1,5.44,1.289,6.218,6.218,0,0,1,4.1,6.447c-.106,2.464-1.786,5.052-4.52,5.054l-23.275.02c-2.942,0-4.658-2.621-4.656-5.285a6.361,6.361,0,0,1,5.293-6.526l4.688-.979.06-3a9.754,9.754,0,0,1-3.229-7.113l-.208-4.123c-.3-5.857,2.409-10.113,8.446-10.715l-.043-2.582a2.244,2.244,0,0,0-1.793-1.651l-33.771,0a2.2,2.2,0,0,0-1.973,1.876ZM49.016,2.3H24.473V16.86H49.016Zm2.67,20.2,1.224-3.285-32.189,0,1.248,3.294ZM19.65,40.375l.087-2.914a9.823,9.823,0,0,0-5.036,0l.068,2.855a21.668,21.668,0,0,0,4.881.057m43.111,4.093L64.719,46.2a10.583,10.583,0,0,0,.13-5.15,2.331,2.331,0,0,0-3.04-1.749,5.944,5.944,0,0,0-5.63-2.218,6.152,6.152,0,0,0-5.928,5.409l1.678-1.044a1.42,1.42,0,0,1,1.248.223,2.138,2.138,0,0,1,.326.985l.129,1.811a4.7,4.7,0,0,1,4.706-2.812c1.828.21,3.072,1.623,4.423,2.817M15.444,56.714a20.139,20.139,0,0,0,4.569.034L22.8,54.261a6.416,6.416,0,0,0,2.3-4.6l.008-5.015a7.627,7.627,0,0,0-3.063-5.919c.248,2.083-.9,3.98-3,4l-3.477.029c-2.089.017-3.342-1.677-3.211-3.884-3.4,2.609-3.085,6.4-2.9,10.566.16,3.624,3.146,5.233,5.99,7.277M50.285,48.45A7.5,7.5,0,0,0,53.775,55.8a6.964,6.964,0,0,0,7.839-.325,7.21,7.21,0,0,0,2.847-6.84c-3.284-1.245-5.551-6.283-8.01-4.042-1.039.947-.474,2.151-1.065,2.852-.83.986-3.285-.646-4.052-2.583-1.233.915-.948,2.212-1.048,3.591M7,45.5H5.524l0,3.473H7Zm20.227.025-.055,3.5,1.688.026.055-3.5ZM57.658,68.7l4.129-8.475-.021-2.139a9.249,9.249,0,0,1-8.2.252,5.108,5.108,0,0,0,.066,2.073Zm-31.084-.765.072,2.359,6.215-.022-.031-3.394a3.6,3.6,0,0,0-2.142-3.22L22,60.191l-.241-1.921a5.225,5.225,0,0,1-2.248.961l-4.372-.063a6.316,6.316,0,0,1-1.727-.832,3.979,3.979,0,0,1-.52,2.086l-8.12,3.2a3.489,3.489,0,0,0-2.43,2.956L2.3,70.28l5.827,0,.093-2.412a3.059,3.059,0,0,1,2.775-2.794l12.843,0a3.083,3.083,0,0,1,2.739,2.851m19.3,2.331,9.959.024-3.989-8.336-4.743.989a4,4,0,0,0-3.612,4.327c.02,1.358.638,2.992,2.384,3m25.473-2.89A4.118,4.118,0,0,0,68.2,63.021l-4.763-1.05-3.981,8.317,9.527-.023c1.52,0,2.339-1.463,2.367-2.893m-47.029-.053H10.43v2.962H24.322Z" transform="translate(0 0)" fill="#12263f"/>
          <path id="Path_1289534" data-name="Path 1289534" d="M142.052,40.929l-16.814,0c-.694,0-1.252-.19-1.457-.745-.19-.513.1-1.56.824-1.56h17.982c.63,0,.96.907.858,1.343a1.234,1.234,0,0,1-1.393.962" transform="translate(-96.851 -30.236)" fill="#12263f"/>
          <path id="Path_1289535" data-name="Path 1289535" d="M142.148,60.989,125.03,61a1.285,1.285,0,0,1-1.294-.957,1.146,1.146,0,0,1,1.069-1.38l17.366-.007a1.162,1.162,0,0,1,1.291,1.187,1.229,1.229,0,0,1-1.314,1.151" transform="translate(-96.849 -45.912)" fill="#12263f"/>
          <path id="Path_1289536" data-name="Path 1289536" d="M132.547,20.947l-7.339,0a1.441,1.441,0,0,1-1.056-.886c-.112-.4.265-1.376.74-1.376l8.067,0c.357,0,.758.834.731,1.182a1.34,1.34,0,0,1-1.142,1.086" transform="translate(-97.171 -14.622)" fill="#12263f"/>
          <path id="Path_1289537" data-name="Path 1289537" d="M53.517,204.775a3.2,3.2,0,1,1-3.2-3.2,3.2,3.2,0,0,1,3.2,3.2m-2.284-.02a.915.915,0,1,0-.914.914.914.914,0,0,0,.914-.914" transform="translate(-36.878 -157.79)" fill="#12263f"/>
          <path id="Path_1289538" data-name="Path 1289538" d="M87.9,204.737a3.205,3.205,0,1,1-3.205-3.2,3.205,3.205,0,0,1,3.205,3.2m-2.294-.02a.909.909,0,1,0-.909.909.909.909,0,0,0,.909-.909" transform="translate(-63.79 -157.759)" fill="#12263f"/>
          <path id="Path_1289539" data-name="Path 1289539" d="M70.52,241.972l-4.055,0c-.382,0-.86-.6-.933-.924-.081-.369.285-1.339.684-1.34l4.574-.017c.353,0,.726.83.7,1.171-.024.384-.538,1.112-.975,1.112" transform="translate(-51.289 -187.628)" fill="#12263f"/>
          <path id="Path_1289540" data-name="Path 1289540" d="M297.2,310.1l-3.456.055a1.483,1.483,0,0,1-1.256-.8c-.164-.458.161-1.5.676-1.509l4.138-.04c.423,0,.9.746.9,1.145,0,.378-.572,1.143-1,1.15" transform="translate(-228.929 -240.949)" fill="#12263f"/>
        </g>
      </g>
    </g>
    <path id="Trazado_1021206" data-name="Trazado 1021206" d="M63.37,1.509A61.878,61.878,0,0,0,39.291,120.371a61.878,61.878,0,0,0,48.158-114A61.473,61.473,0,0,0,63.37,1.509M63.37,0A63.37,63.37,0,1,1,0,63.37,63.37,63.37,0,0,1,63.37,0Z" transform="translate(705.629 410)" fill="#89e4ef"/>
  </g>
</svg>
