<svg xmlns="http://www.w3.org/2000/svg" xmlns:xlink="http://www.w3.org/1999/xlink" width="69.32" height="69.32" viewBox="0 0 69.32 69.32">
  <defs>
    <clipPath id="clip-path">
      <rect id="Rectangle_467885" data-name="Rectangle 467885" width="39.119" height="39.095" fill="#fff"/>
    </clipPath>
  </defs>
  <g id="img5" transform="translate(-305.68 -11643.563)">
    <circle id="Ellipse_13695" data-name="Ellipse 13695" cx="34.66" cy="34.66" r="34.66" transform="translate(305.68 11643.563)" fill="#564065"/>
    <g id="Group_1214035" data-name="Group 1214035" transform="translate(320.78 11658.676)">
      <g id="Group_1214034" data-name="Group 1214034" clip-path="url(#clip-path)">
        <path id="Path_1289435" data-name="Path 1289435" d="M189.529,86.593a10.9,10.9,0,0,0-5.394,2.151l-.006-23.909L184.043,63a13.34,13.34,0,0,1,6.606-1.842l7.289-.011v25.4l-3.145-.032c-1.763-.046-3.457-.022-5.264.084" transform="translate(-163.415 -54.29)" fill="#fff"/>
        <path id="Path_1289436" data-name="Path 1289436" d="M91.129,9.914,91.116,32.2a8.254,8.254,0,0,0-9.2-6.813L81.917,0a8.59,8.59,0,0,1,7.764,4.453,11.02,11.02,0,0,1,1.448,5.461" transform="translate(-72.735 0)" fill="#fff"/>
        <path id="Path_1289437" data-name="Path 1289437" d="M36.829,84.174l2.289-.019v25.4l-12.434.047A6.425,6.425,0,0,0,22.4,111.81H16.723a6.375,6.375,0,0,0-4.289-2.211L0,109.555V81.9H2.29v25.335l9.027-.009a9.189,9.189,0,0,1,6.359,2.314l3.725.008a9.2,9.2,0,0,1,5.955-2.307l9.476-.006Z" transform="translate(0 -72.717)" fill="#fff"/>
        <path id="Path_1289438" data-name="Path 1289438" d="M47.133,64.041a5.629,5.629,0,0,1,5.387,5.436,10.753,10.753,0,0,0-3.561-.853L41,68.606V40.943h2.273V64.016Z" transform="translate(-36.406 -36.354)" fill="#fff"/>
      </g>
    </g>
  </g>
</svg>
