<svg xmlns="http://www.w3.org/2000/svg" xmlns:xlink="http://www.w3.org/1999/xlink" width="69.32" height="69.32" viewBox="0 0 69.32 69.32">
  <defs>
    <clipPath id="clip-path">
      <rect id="Rectangle_467889" data-name="Rectangle 467889" width="41.228" height="41.276" fill="#fff"/>
    </clipPath>
  </defs>
  <g id="img7" transform="translate(-305.31 -11643.729)">
    <circle id="Ellipse_13695" data-name="Ellipse 13695" cx="34.66" cy="34.66" r="34.66" transform="translate(305.31 11643.729)" fill="#564065"/>
    <g id="Group_1214043" data-name="Group 1214043" transform="translate(319.309 11657.729)">
      <g id="Group_1214042" data-name="Group 1214042" clip-path="url(#clip-path)">
        <path id="Path_1289460" data-name="Path 1289460" d="M121.508,94.829l-.025-20.1a6.265,6.265,0,0,1-4.16-4.5,6.056,6.056,0,1,1,7.677,4.5l-.006,19.92a1.766,1.766,0,0,1-1.574,1.652,1.673,1.673,0,0,1-1.912-1.465" transform="translate(-102.583 -55.029)" fill="#fff"/>
        <path id="Path_1289461" data-name="Path 1289461" d="M7.724,24.976a1.7,1.7,0,0,1-.279,2.442,1.739,1.739,0,0,1-2.451-.39A19.47,19.47,0,0,1,0,13.853,19.186,19.186,0,0,1,5.347.407,1.749,1.749,0,0,1,7.68.5a1.725,1.725,0,0,1,.157,2.281,16.379,16.379,0,0,0-.112,22.2" transform="translate(0 0)" fill="#fff"/>
        <path id="Path_1289462" data-name="Path 1289462" d="M268.7,27.319a1.671,1.671,0,0,1-2.372.154,1.727,1.727,0,0,1-.234-2.321,16.256,16.256,0,0,0,4.339-9.879A16.118,16.118,0,0,0,266.3,3.05a1.777,1.777,0,0,1,.043-2.586,1.848,1.848,0,0,1,2.667.369,19.965,19.965,0,0,1-.306,26.486" transform="translate(-232.654 -0.039)" fill="#fff"/>
        <path id="Path_1289463" data-name="Path 1289463" d="M226.6,60.97a1.718,1.718,0,1,1-2.691-2.116A8,8,0,0,0,223.9,48a1.716,1.716,0,0,1,.044-2.369,1.78,1.78,0,0,1,2.331-.127,11.032,11.032,0,0,1,3.122,7.725,11.4,11.4,0,0,1-2.8,7.739" transform="translate(-195.625 -39.506)" fill="#fff"/>
        <path id="Path_1289464" data-name="Path 1289464" d="M62.9,61.348a11.341,11.341,0,0,1-.312-15.379,1.911,1.911,0,0,1,1.536-.71,1.68,1.68,0,0,1,1.512,1.053,1.7,1.7,0,0,1-.534,1.9,7.992,7.992,0,0,0,.211,10.792,1.682,1.682,0,0,1-.134,2.269,1.645,1.645,0,0,1-2.279.07" transform="translate(-52.297 -39.623)" fill="#fff"/>
      </g>
    </g>
  </g>
</svg>
